# AST/ASF file generated using VICON BodyLanguage
# -----------------------------------------------
:version 1.10
:name VICON
:units
  mass 1.0
  length 0.45
  angle deg
:documentation
   .ast/.asf automatically generated from VICON data using
   VICON BodyBuilder and BodyLanguage model FoxedUp or BRILLIANT.MOD
:root
   order TX TY TZ RX RY RZ
   axis XYZ
   position 0 0 0  
   orientation 0 0 0 
:bonedata
  begin
     id 1 
     name lhipjoint
     direction 0.611823 -0.767273 0.19226 
     length 2.47422 
     axis 0 0 0  XYZ
  end
  begin
     id 2 
     name lfemur
     direction 0.34202 -0.939693 0  
     length 7.40835  
     axis 0 0 20  XYZ
    dof rx ry rz
    limits (-160.0 20.0)
           (-70.0 70.0)
           (-60.0 70.0)
  end
  begin
     id 3 
     name ltibia
     direction 0.34202 -0.939693 0   
     length 8.03679   
     axis 0 0 20   XYZ
    dof rx
    limits (-10.0 170.0)
  end
  begin
     id 4 
     name lfoot
     direction 0.0883598 -0.242766 0.966052   
     length 2.06694   
     axis -90 7.62852e-016 20   XYZ
    dof rx rz
    limits (-45.0 90.0)
           (-70.0 20.0)
  end
  begin
     id 5 
     name ltoes
     direction 1.53617e-011 -4.21699e-011 1   
     length 1.03711   
     axis -90 7.62852e-016 20   XYZ
    dof rx
    limits (-90.0 20.0)
  end
  begin
     id 6 
     name rhipjoint
     direction -0.590066 -0.783143 0.196236   
     length 2.42408  
     axis 0 0 0  XYZ 
  end
  begin
     id 7 
     name rfemur
     direction -0.34202 -0.939693 0   
     length 7.88987   
     axis 0 0 -20   XYZ
    dof rx ry rz
    limits (-160.0 20.0)
           (-70.0 70.0)
           (-70.0 60.0)
  end
  begin
     id 8 
     name rtibia
     direction -0.34202 -0.939693 0   
     length 7.87584   
     axis 0 0 -20   XYZ
    dof rx
    limits (-10.0 170.0)
 end
 begin
     id 9 
     name rfoot
     direction -0.130476 -0.358481 0.924374   
     length 2.21745  
     axis -90 -7.62852e-016 -20   XYZ
    dof rx rz
    limits (-45.0 90.0)
           (-20.0 70.0)
  end
  begin
     id 10 
     name rtoes
     direction 8.20695e-005 8.89091e-005 1   
     length 1.09536   
     axis -90 -7.62852e-016 -20   XYZ
    dof rx
    limits (-90.0 20.0)
  end
  begin
     id 11 
     name lowerback
     direction 0.00981224 0.999875 -0.0124197   
     length 1.94808   
     axis 0 0 0   XYZ
    dof rx ry rz
    limits (-20.0 45.0)
           (-30.0 30.0)
           (-30.0 30.0)
  end
  begin
     id 12 
     name upperback
     direction 0.038911 0.999194 0.00981686   
     length 1.94415   
     axis 0 0 0   XYZ
    dof rx ry rz
    limits (-20.0 45.0)
           (-30.0 30.0)
           (-30.0 30.0)
  end
  begin
     id 13 
     name thorax
     direction 0.0330692 0.999334 0.0154389   
     length 1.94117   
     axis 0 0 0   XYZ
    dof rx ry rz
    limits (-20.0 45.0)
           (-30.0 30.0)
           (-30.0 30.0)
  end
  begin
     id 14 
     name lowerneck
     direction -0.0374305 0.99415 0.10132   
     length 1.87291   
     axis 0 0 0   XYZ
    dof rx ry rz
    limits (-20.0 45.0)
           (-30.0 30.0)
           (-30.0 30.0)
  end
  begin
     id 15 
     name upperneck
     direction 0.0120692 0.985979 -0.166431   
     length 1.89248   
     axis 0 0 0   XYZ
    dof rx ry rz
    limits (-20.0 45.0)
           (-30.0 30.0)
           (-30.0 30.0)
  end
  begin
     id 16
     name head
     direction 0.00629908 0.997708 -0.06737  
     length 1.90559  
     axis 0 0 0   XYZ
    dof rx ry rz
    limits (-20.0 45.0)
           (-30.0 30.0)
           (-30.0 30.0)
  end
  begin
     id 17 
     name lclavicle
     direction 0.961536 0.27308 -0.0295863  
     length 3.52757  
     axis 0 0 0   XYZ
    dof ry rz
    limits (-20.0 10.0)
           (0.0 20.0)
  end
  begin
     id 18 
     name lhumerus
     direction 1 -4.48969e-011 2.61153e-029   
     length 5.14845   
     axis 180 -30 -90   XYZ
    dof rx ry rz
    limits (-60.0 90.0)
           (-90.0 90.0)
           (-90.0 90.0)
  end
  begin
     id 19
     name lradius
     direction 1 -4.4896e-011 -3.37549e-027   
     length 3.43674   
     axis 180 -30 -90   XYZ
    dof rx
    limits (-10.0 170.0)
  end
  begin
     id 20
     name lwrist
     direction 1 -4.48969e-011 2.56952e-028   
     length 1.71837   
     axis -5.12785e-016 90 90   XYZ
    dof ry
    limits (-180.0 0.0)
 end
  begin
     id 21 
     name lhand
     direction 1 -4.49094e-011 5.13905e-028   
     length 0.588709   
     axis -3.27915e-016 90 90   XYZ
    dof rx rz
    limits (-90.0 90.0)
           (-45.0 45.0)
  end
  begin
     id 22 
     name lfingers
     direction 1 -4.48821e-011 1.02781e-027   
     length 0.474633   
     axis -6.5583e-016 90 90   XYZ
    dof rx
    limits (0.0 90.0)
  end
  begin
     id 23
     name lthumb
     direction 0.707107 -6.34922e-011 0.707107   
     length 0.68148   
     axis -90 45 2.85299e-015   XYZ
    dof rx rz
    limits (-45.0 45.0)
           (-45.0 45.0)
  end
  begin
     id 24 
     name rclavicle
     direction -0.940964 0.333844 -0.0559866   
     length 3.55948  
     axis 0 0 0   XYZ 
    dof ry rz
    limits (-10.0 20.0)
           (-20.0 0.0)
  end
  begin
     id 25 
     name rhumerus
     direction -1 -4.48973e-011 3.15259e-027  
     length 5.42185   
     axis 180 30 90   XYZ
    dof rx ry rz
    limits (-90.0 60.0)
           (-90.0 90.0)
           (-90.0 90.0)
  end
  begin
     id 26 
     name rradius
     direction -1 -4.48954e-011 -2.56271e-027   
     length 3.51317   
     axis 180 30 90   XYZ
    dof rx
    limits (-10.0 170.0)
  end
  begin
     id 27 
     name rwrist
     direction -1 -4.48943e-011 2.56952e-028   
     length 1.75658   
     axis -5.12785e-016 -90 -90   XYZ
    dof ry
    limits (-180.0 0.0)
  end
  begin
     id 28
     name rhand
     direction -1 -4.4912e-011 5.13905e-028   
     length 0.663187   
     axis -3.27915e-016 -90 -90   XYZ
    dof rx rz
    limits (-90.0 90.0)
           (-45.0 45.0)
  end
  begin
     id 29
     name rfingers
     direction -1 -4.48914e-011 1.02781e-027   
     length 0.534679   
     axis -6.5583e-016 -90 -90   XYZ
    dof rx
    limits (0.0 90.0)
  end
  begin
     id 30
     name rthumb
     direction -0.707107 -6.35033e-011 0.707107   
     length 0.767695   
     axis -90 -45 -2.85299e-015   XYZ
    dof rx rz
    limits (-45.0 45.0)
           (-45.0 45.0)
  end
:hierarchy
  begin
    root lhipjoint rhipjoint lowerback
    lhipjoint lfemur
    lfemur ltibia
    ltibia lfoot
    lfoot ltoes
    rhipjoint rfemur
    rfemur rtibia
    rtibia rfoot
    rfoot rtoes
    lowerback upperback
    upperback thorax
    thorax lowerneck lclavicle rclavicle
    lowerneck upperneck
    upperneck head
    lclavicle lhumerus
    lhumerus lradius
    lradius lwrist
    lwrist lhand lthumb
    lhand lfingers
    rclavicle rhumerus
    rhumerus rradius
    rradius rwrist
    rwrist rhand rthumb
    rhand rfingers
  end

#!OML:ASF F:\VICON\USERDATA\INSTALL\Justin_a\Justin_a.ASF
:FULLY-SPECIFIED
:DEGREES
4683
root -3.59387 18.1697 -12.4614 -539.757 -170.06 541.229
lowerback 5.81737 0.769582 -3.64973
upperback 2.09526 0.839059 1.42194
thorax -1.17415 0.406683 3.46026
lowerneck -10.8164 0.415349 -2.76928
upperneck 37.9611 2.50646 -3.27624
head 15.0681 0.190662 -0.503815
rclavicle -1.2424e-014 1.19271e-015
rhumerus -38.9803 -6.41175 -81.3215
rradius 34.9497
rwrist 1.45871
rhand -37.8094 18.5716
rfingers 7.12502
rthumb -10.8554 -11.1278
lclavicle -1.2424e-014 1.19271e-015
lhumerus -34.7363 11.1256 78.7833
lradius 33.663
lwrist 2.16583
lhand -18.2618 21.0518
lfingers 7.12502
lthumb 8.01767 50.8797
rfemur -4.01561 7.23093 26.8562
rtibia 23.8438
rfoot -21.6545 -7.33555
rtoes 6.68321
lfemur -103.583 12.697 -27.0346
ltibia 132.57
lfoot -8.1455 1.66453
ltoes 7.49713
4684
root -3.59533 18.1727 -12.4007 -540.222 -169.279 541.459
lowerback 5.65152 0.971271 -3.82258
upperback 2.27031 1.10392 1.33331
thorax -0.925535 0.530346 3.45094
lowerneck -10.6367 0.427764 -2.83527
upperneck 37.926 2.50473 -3.2143
head 15.0065 0.190445 -0.466422
rclavicle 1.82385e-014 1.03368e-014
rhumerus -38.9768 -6.46345 -81.3107
rradius 34.6465
rwrist 1.64172
rhand -37.9324 19.0382
rfingers 7.12502
rthumb -10.974 -10.655
lclavicle 1.82385e-014 1.03368e-014
lhumerus -34.7576 11.3737 78.6492
lradius 33.485
lwrist 1.89957
lhand -18.3921 20.763
lfingers 7.12502
lthumb 7.8919 50.5957
rfemur -3.16562 7.33282 26.5791
rtibia 23.4786
rfoot -21.684 -6.80804
rtoes 5.9911
lfemur -103.912 12.7944 -27.0585
ltibia 131.289
lfoot -8.17237 1.60073
ltoes 7.73434
4685
root -3.59906 18.1708 -12.3421 -540.627 -168.603 541.49
lowerback 5.54617 1.13882 -3.79095
upperback 2.41348 1.33256 1.26075
thorax -0.737179 0.638398 3.34578
lowerneck -10.6063 0.474493 -2.70667
upperneck 38.0205 2.52912 -3.18643
head 15.0456 0.219668 -0.475714
rclavicle -3.23025e-015 -3.97569e-016
rhumerus -39.0102 -6.57255 -81.3703
rradius 34.4192
rwrist 1.84768
rhand -37.6509 19.5586
rfingers 7.12502
rthumb -10.7025 -10.1488
lclavicle -3.23025e-015 -3.97569e-016
lhumerus -34.7441 11.3939 78.5091
lradius 33.3532
lwrist 1.92508
lhand -18.4315 20.535
lfingers 7.12502
lthumb 7.85391 50.3691
rfemur -2.36997 7.47733 26.549
rtibia 23.1578
rfoot -21.7355 -6.36127
rtoes 5.82075
lfemur -104.258 12.8834 -26.8495
ltibia 129.897
lfoot -8.27925 1.55813
ltoes 6.1133
4686
root -3.60423 18.1751 -12.2845 -540.938 -167.98 541.522
lowerback 5.37404 1.2704 -3.85165
upperback 2.56083 1.51241 1.26844
thorax -0.506528 0.720369 3.38135
lowerneck -10.7236 0.554436 -2.6187
upperneck 38.0746 2.6747 -3.29932
head 15.105 0.275255 -0.51731
rclavicle -2.48481e-016 -1.59028e-015
rhumerus -38.9453 -6.35405 -81.4693
rradius 34.2974
rwrist 1.81157
rhand -37.4939 19.2634
rfingers 7.12502
rthumb -10.5511 -10.4518
lclavicle -2.48481e-016 -1.59028e-015
lhumerus -34.7148 11.4617 78.4928
lradius 33.3558
lwrist 2.07506
lhand -18.311 20.669
lfingers 7.12502
lthumb 7.97018 50.4987
rfemur -1.69593 7.66809 26.5198
rtibia 22.873
rfoot -21.8229 -5.96598
rtoes 5.91993
lfemur -104.566 12.8566 -26.5146
ltibia 128.261
lfoot -8.4339 1.40861
ltoes 5.33714
4687
root -3.60963 18.1777 -12.2275 -541.259 -167.436 541.668
lowerback 5.16112 1.37592 -3.98684
upperback 2.7019 1.65584 1.22777
thorax -0.257258 0.783278 3.41312
lowerneck -10.7687 0.624037 -2.5305
upperneck 38.0815 2.79894 -3.41346
head 15.1244 0.323428 -0.562263
rclavicle 2.00276e-014 2.06736e-014
rhumerus -38.9685 -6.32947 -81.54
rradius 34.2574
rwrist 1.81974
rhand -37.5678 19.2371
rfingers 7.12502
rthumb -10.6224 -10.4744
lclavicle 2.00276e-014 2.06736e-014
lhumerus -34.6722 11.5978 78.4093
lradius 33.2269
lwrist 2.10986
lhand -18.1823 20.4646
lfingers 7.12502
lthumb 8.09441 50.2896
rfemur -1.03902 7.86719 26.3782
rtibia 22.5979
rfoot -21.9242 -5.66104
rtoes 5.74341
lfemur -104.73 12.6418 -26.1979
ltibia 126.431
lfoot -8.22154 1.19124
ltoes 4.71914
